<?xml version="1.0" encoding="UTF-8"?>
<svg id="_레이어_2" data-name="레이어 2" xmlns="http://www.w3.org/2000/svg" viewBox="0 0 180.44 57.7">
  <defs>
    <style>
      .cls-1 {
        fill: none;
      }
    </style>
  </defs>
  <g id="_레이어_1-2" data-name="레이어 1">
    <path d="M78.63,1.36c-4.16,1.94-6.73,5.23-5.74,7.36s5.17,2.27,9.33.33c4.16-1.94,6.73-5.23,5.74-7.36s-5.17-2.27-9.33-.33ZM80.93,6.31c-2.96,1.38-5.74,1.69-6.2.7s1.56-2.92,4.52-4.3,5.74-1.69,6.2-.7-1.56,2.92-4.52,4.3Z"/>
    <polygon class="cls-1" points="12.3 24.78 21.88 24.78 18.24 12.72 12.3 24.78"/>
    <path d="M.53,37.11h5.47l4.13-7.98h13.16l2.46,7.98h5.25L19.29.77.53,37.11ZM12.3,24.78l5.93-12.06,3.65,12.06h-9.58Z"/>
    <path d="M39.6,9.16c.72,0,1.33-.26,1.85-.77s.77-1.12.77-1.82-.27-1.36-.81-1.89c-.53-.54-1.15-.81-1.87-.81s-1.31.26-1.82.77-.75,1.11-.75,1.82.26,1.35.77,1.91c.53.53,1.15.79,1.87.79Z"/>
    <polygon points="33.3 37.11 38.15 37.11 40.7 16.41 35.85 16.41 33.3 37.11"/>
    <path d="M53.09,15.86c-1.67,0-3.33.78-4.97,2.33l.22-1.78h-4.86l-2.55,20.7h4.86l1.27-10.33c.13-1.14.31-2.12.54-2.94.23-.82.51-1.49.86-2.01.34-.52.75-.9,1.22-1.14.47-.24,1.01-.36,1.63-.36.89,0,1.79.38,2.68,1.14l3.1-4c-1.2-1.07-2.53-1.6-4-1.6Z"/>
    <polygon points="65.99 3.19 60.98 3.19 56.81 37.11 71.44 37.11 72.01 32.43 62.41 32.43 65.99 3.19"/>
    <polygon points="74.07 37.11 78.92 37.11 81.47 16.41 76.61 16.41 74.07 37.11"/>
    <path d="M94.7,15.91c-1.96,0-3.9.81-5.82,2.42l.22-1.91h-4.83l-2.55,20.7h4.86l1.23-9.98c.1-.83.22-1.57.35-2.21.13-.64.29-1.18.48-1.62.35-.86.89-1.6,1.63-2.2.89-.76,1.96-1.14,3.21-1.14,2.02,0,3.03.94,3.03,2.81,0,.28-.01.59-.03.94-.02.35-.06.75-.12,1.21l-1.49,12.17h4.83l1.38-11.12c.18-1.46.26-2.72.26-3.78,0-1.95-.59-3.49-1.78-4.61-1.22-1.13-2.83-1.69-4.86-1.69Z"/>
    <polygon points="117.59 16.41 108.89 24.46 111.9 0 107.04 0 102.47 37.11 107.33 37.11 108.54 27.27 116.08 37.11 121.94 37.11 113.22 25.86 120.61 19.43 117.59 16.41"/>
    <path d="M129.5,19.43c0-4.9-3.99-8.89-8.89-8.89-2.06,0-3.96.71-5.47,1.9l-.31,2.4c1.36-1.7,3.44-2.8,5.78-2.8,4.08,0,7.39,3.32,7.39,7.39s-3.32,7.39-7.39,7.39c-.27,0-.55-.02-.81-.05l1.24,1.53c4.71-.22,8.47-4.11,8.47-8.87Z"/>
    <path d="M133.86,19.43c0-7.31-5.94-13.25-13.25-13.25-1.69,0-3.3.33-4.78.91l-.22,1.73c1.52-.72,3.21-1.14,5.01-1.14,6.48,0,11.75,5.27,11.75,11.75,0,5.61-3.95,10.31-9.22,11.47l1.04,1.28c5.58-1.56,9.68-6.68,9.68-12.75Z"/>
    <path d="M138.28,19.43c0-9.75-7.93-17.68-17.67-17.68-1.43,0-2.82.19-4.16.51l-.21,1.6c1.39-.39,2.85-.62,4.37-.62,8.92,0,16.17,7.26,16.17,16.18,0,6.97-4.44,12.91-10.64,15.18l1,1.23c6.52-2.6,11.14-8.97,11.14-16.41Z"/>
    <g>
      <path d="M6.96,44.19l-1.38.82c-.26-.45-.51-.74-.74-.88-.24-.16-.56-.23-.94-.23-.47,0-.87.13-1.18.4-.31.26-.47.6-.47,1,0,.55.41,1,1.23,1.33l1.13.46c.92.37,1.59.82,2.01,1.36.42.54.64,1.19.64,1.97,0,1.04-.35,1.9-1.04,2.58-.7.68-1.56,1.03-2.6,1.03-.98,0-1.79-.29-2.43-.87-.63-.58-1.02-1.4-1.18-2.45l1.73-.38c.08.66.21,1.12.41,1.38.35.49.86.73,1.54.73.53,0,.97-.18,1.33-.53s.53-.81.53-1.36c0-.22-.03-.42-.09-.6-.06-.18-.16-.35-.29-.5-.13-.15-.3-.3-.5-.43-.21-.13-.45-.26-.73-.38l-1.09-.46c-1.55-.65-2.32-1.61-2.32-2.87,0-.85.32-1.56.97-2.13.65-.58,1.46-.86,2.42-.86,1.3,0,2.32.63,3.05,1.9Z"/>
      <path d="M13.19,46.68v4.09c0,1.18.47,1.77,1.4,1.77s1.4-.59,1.4-1.77v-4.09h1.65v4.13c0,.57-.07,1.06-.21,1.48-.14.37-.37.71-.71,1-.56.48-1.26.72-2.12.72s-1.56-.24-2.12-.72c-.34-.3-.58-.63-.73-1-.14-.33-.21-.83-.21-1.48v-4.13h1.65Z"/>
      <path d="M23.92,57.7h-1.65v-11.02h1.65v.78c.65-.65,1.39-.97,2.21-.97.98,0,1.79.36,2.42,1.08.64.72.97,1.62.97,2.72s-.32,1.96-.96,2.67c-.63.71-1.44,1.06-2.4,1.06-.83,0-1.58-.33-2.24-1v4.68ZM27.83,50.29c0-.68-.19-1.24-.56-1.67-.38-.43-.85-.65-1.42-.65-.61,0-1.1.21-1.47.63s-.56.97-.56,1.66.19,1.22.56,1.66c.37.42.86.64,1.46.64.57,0,1.04-.21,1.41-.64.38-.43.57-.97.57-1.61Z"/>
      <path d="M40.31,50.64h-5.11c.04.59.23,1.05.57,1.4.34.34.77.51,1.3.51.41,0,.75-.1,1.02-.29.26-.19.56-.56.9-1.08l1.39.78c-.21.37-.44.68-.68.94-.24.26-.5.48-.77.64-.27.17-.57.29-.89.37s-.66.12-1.03.12c-1.06,0-1.92-.34-2.56-1.03-.64-.69-.97-1.6-.97-2.74s.31-2.04.94-2.74c.63-.69,1.46-1.03,2.5-1.03s1.88.33,2.49,1c.61.66.91,1.58.91,2.76v.39ZM38.62,49.29c-.23-.88-.78-1.32-1.66-1.32-.2,0-.39.03-.56.09-.18.06-.34.15-.48.26-.14.11-.27.25-.37.41-.1.16-.18.34-.23.55h3.31Z"/>
      <path d="M44.66,46.68h1.65v.64c.3-.32.57-.54.81-.65.24-.12.52-.18.85-.18.43,0,.89.14,1.36.43l-.75,1.51c-.31-.22-.62-.34-.92-.34-.9,0-1.35.68-1.35,2.04v3.7h-1.65v-7.13Z"/>
      <path d="M59.92,53.82l2.38-12.16,3.88,8.79,4.02-8.79,2.14,12.16h-1.75l-1.09-6.83-3.35,7.35-3.25-7.35-1.22,6.83h-1.77Z"/>
      <path d="M76.72,43.72c0-.29.1-.54.31-.75.21-.21.46-.31.75-.31s.55.11.76.31c.21.21.31.46.31.75s-.1.55-.31.76c-.21.21-.46.32-.75.32s-.55-.11-.76-.32-.31-.47-.31-.77ZM78.62,46.68v7.13h-1.65v-7.13h1.65Z"/>
      <path d="M88.81,46.99v2.19c-.38-.46-.71-.77-1.01-.94-.29-.18-.64-.26-1.03-.26-.62,0-1.14.22-1.55.65-.41.44-.62.98-.62,1.63s.2,1.22.59,1.65c.4.43.91.64,1.53.64.4,0,.74-.08,1.05-.26.29-.17.64-.49,1.03-.97v2.18c-.67.35-1.34.52-2.01.52-1.1,0-2.03-.36-2.77-1.07-.74-.72-1.11-1.61-1.11-2.67s.38-1.96,1.13-2.7,1.67-1.1,2.77-1.1c.7,0,1.37.17,1.99.51Z"/>
      <path d="M92.96,46.68h1.65v.64c.3-.32.57-.54.81-.65.24-.12.52-.18.85-.18.43,0,.89.14,1.36.43l-.75,1.51c-.31-.22-.62-.34-.92-.34-.9,0-1.35.68-1.35,2.04v3.7h-1.65v-7.13Z"/>
      <path d="M100.65,50.2c0-1.03.37-1.91,1.11-2.63.74-.72,1.64-1.08,2.7-1.08s1.97.36,2.71,1.09c.73.73,1.1,1.62,1.1,2.68s-.37,1.97-1.11,2.69c-.74.72-1.65,1.08-2.73,1.08s-1.97-.37-2.69-1.1c-.72-.72-1.08-1.63-1.08-2.72ZM102.33,50.23c0,.71.19,1.28.57,1.69.39.42.91.63,1.55.63s1.16-.21,1.54-.62.58-.97.58-1.66-.19-1.25-.58-1.66c-.39-.42-.91-.63-1.54-.63s-1.14.21-1.53.63-.59.96-.59,1.63Z"/>
      <path d="M119.65,53.82l2.38-12.16,3.88,8.79,4.02-8.79,2.14,12.16h-1.75l-1.09-6.83-3.35,7.35-3.25-7.35-1.22,6.83h-1.76Z"/>
      <path d="M136.36,50.2c0-1.03.37-1.91,1.11-2.63.74-.72,1.64-1.08,2.7-1.08s1.97.36,2.71,1.09c.73.73,1.1,1.62,1.1,2.68s-.37,1.97-1.11,2.69c-.74.72-1.65,1.08-2.73,1.08s-1.96-.37-2.69-1.1c-.72-.72-1.08-1.63-1.08-2.72ZM138.05,50.23c0,.71.19,1.28.57,1.69.39.42.91.63,1.54.63s1.16-.21,1.55-.62.58-.97.58-1.66-.19-1.25-.58-1.66c-.39-.42-.91-.63-1.55-.63s-1.14.21-1.53.63-.59.96-.59,1.63Z"/>
      <path d="M153.52,41.45h1.66v12.37h-1.66v-.75c-.65.63-1.38.95-2.21.95-.98,0-1.79-.36-2.43-1.07-.64-.73-.96-1.64-.96-2.72s.32-1.95.96-2.67c.63-.72,1.43-1.08,2.4-1.08.83,0,1.58.34,2.24,1.03v-6.06ZM149.61,50.23c0,.68.18,1.24.55,1.67.38.43.85.65,1.42.65.61,0,1.1-.21,1.48-.63.38-.43.56-.99.56-1.66s-.19-1.22-.56-1.65c-.38-.43-.87-.64-1.46-.64-.57,0-1.04.21-1.42.64-.38.43-.56.97-.56,1.61Z"/>
      <path d="M166.31,50.64h-5.11c.04.59.23,1.05.57,1.4.34.34.77.51,1.3.51.41,0,.75-.1,1.02-.29.26-.19.56-.56.9-1.08l1.39.78c-.21.37-.44.68-.68.94-.24.26-.5.48-.77.64-.27.17-.57.29-.89.37s-.66.12-1.03.12c-1.06,0-1.92-.34-2.56-1.03-.64-.69-.97-1.6-.97-2.74s.31-2.04.94-2.74c.63-.69,1.46-1.03,2.5-1.03s1.88.33,2.49,1c.61.66.91,1.58.91,2.76v.39ZM164.61,49.29c-.23-.88-.78-1.32-1.66-1.32-.2,0-.39.03-.56.09-.18.06-.34.15-.48.26-.14.11-.27.25-.37.41-.1.16-.18.34-.23.55h3.31Z"/>
      <path d="M170.66,46.68h1.65v.66c.32-.33.59-.56.81-.67.24-.12.54-.18.9-.18.8,0,1.44.35,1.91,1.05.52-.7,1.22-1.05,2.1-1.05,1.61,0,2.41.97,2.41,2.92v4.41h-1.66v-3.96c0-.68-.08-1.17-.25-1.45-.17-.29-.45-.43-.84-.43-.45,0-.78.17-.99.51-.21.34-.31.89-.31,1.65v3.68h-1.66v-3.94c0-1.27-.37-1.9-1.1-1.9-.46,0-.8.17-1.01.52-.21.35-.32.89-.32,1.64v3.68h-1.65v-7.13Z"/>
    </g>
    <g>
      <path d="M149.32,15.07l-.74.44c-.14-.24-.27-.4-.39-.47-.13-.08-.3-.12-.5-.12-.25,0-.46.07-.63.21-.17.14-.25.32-.25.53,0,.29.22.53.66.71l.6.25c.49.2.85.44,1.07.72s.34.63.34,1.05c0,.55-.19,1.01-.55,1.38-.37.36-.83.55-1.39.55-.52,0-.96-.16-1.3-.46-.34-.31-.55-.75-.63-1.31l.92-.2c.04.35.11.6.22.73.19.26.46.39.82.39.28,0,.52-.09.71-.29s.28-.43.28-.72c0-.12-.02-.22-.05-.32-.03-.1-.08-.19-.15-.27-.07-.08-.16-.16-.27-.23s-.24-.14-.39-.21l-.58-.24c-.83-.35-1.24-.86-1.24-1.53,0-.45.17-.83.52-1.14.35-.31.78-.46,1.29-.46.7,0,1.24.34,1.63,1.02Z"/>
      <path d="M156.67,18.5h-2.73c.02.31.12.56.3.75.18.18.41.27.69.27.22,0,.4-.05.54-.16.14-.1.3-.3.48-.58l.74.41c-.12.2-.24.36-.36.5-.13.14-.26.25-.41.34-.15.09-.3.16-.47.2-.17.04-.35.06-.55.06-.57,0-1.02-.18-1.37-.55-.34-.37-.52-.85-.52-1.46s.17-1.09.5-1.46c.34-.37.78-.55,1.34-.55s1,.18,1.33.54c.32.35.48.84.48,1.47v.21ZM155.76,17.79c-.12-.47-.42-.7-.89-.7-.11,0-.21.02-.3.05s-.18.08-.26.14c-.08.06-.14.13-.2.22s-.1.18-.12.29h1.77Z"/>
      <path d="M160.43,16.4h.88v.34c.16-.17.3-.29.43-.35.13-.07.28-.1.45-.1.23,0,.47.08.73.23l-.4.8c-.17-.12-.33-.18-.49-.18-.48,0-.72.36-.72,1.09v1.97h-.88v-3.8Z"/>
      <path d="M166.21,14.81c0-.15.06-.29.17-.4.11-.11.25-.17.4-.17s.29.06.41.17c.11.11.17.24.17.4s-.06.29-.17.41c-.11.11-.24.17-.4.17s-.29-.06-.41-.17c-.11-.11-.17-.25-.17-.41ZM167.22,16.4v3.8h-.88v-3.8h.88Z"/>
      <path d="M173.94,16.4h.88v3.8h-.88v-.4c-.36.34-.75.51-1.17.51-.53,0-.96-.19-1.3-.57-.34-.39-.51-.87-.51-1.45s.17-1.05.51-1.43c.34-.38.77-.57,1.28-.57.44,0,.84.18,1.19.55v-.44ZM171.85,18.29c0,.36.1.66.29.89.2.23.45.35.76.35.33,0,.59-.11.79-.34.2-.23.3-.53.3-.88s-.1-.65-.3-.88c-.2-.23-.46-.34-.78-.34-.3,0-.55.11-.76.34-.2.23-.3.52-.3.86Z"/>
      <path d="M179.61,13.6v6.6h-.88v-6.6h.88Z"/>
    </g>
    <polygon class="cls-1" points="170.82 28.63 171.06 28.32 170.82 28.32 170.82 28.63"/>
    <polygon class="cls-1" points="170.82 30.72 170.82 31.45 171.37 31.43 170.82 30.72"/>
    <path class="cls-1" d="M160.29,29.69c-.23,0-.44.04-.65.11l1.18-.04c-.17-.04-.35-.07-.53-.07Z"/>
    <path d="M145.58,29.9c.43-.09.85-.13,1.26-.13.71,0,1.32.13,1.82.38l4.38-.14c-.22-.47-.5-.89-.85-1.24-.17-.17-.37-.32-.57-.46h-7.01l-.31,1.97h.09c.39-.17.78-.3,1.18-.39Z"/>
    <path d="M150.68,27.78c-.59-.24-1.22-.36-1.91-.36-.19,0-.38,0-.56.03-.18.02-.38.04-.59.06l.19-1.2h-2.88l-.31,1.96,6.6-.21c-.18-.1-.35-.2-.54-.28Z"/>
    <polygon points="147.85 26.02 152.55 26.02 152.55 24.31 145.24 24.31 144.93 26.27 147.82 26.18 147.85 26.02"/>
    <polygon points="152.55 23.03 145.44 23.03 145.25 24.26 152.55 24.03 152.55 23.03"/>
    <path d="M145.5,36.69c.74.2,1.51.3,2.33.3.86,0,1.65-.11,2.36-.33.29-.09.55-.21.81-.33h-6.56c.34.15.69.27,1.06.37Z"/>
    <path d="M153.53,32.32h-3.65c-.06.44-.26.83-.6,1.15-.42.39-.99.58-1.71.58-.56,0-1.16-.14-1.78-.41-.62-.27-1.24-.66-1.84-1.18l-.29,1.84,9.54-.3c.21-.51.32-1.07.33-1.69Z"/>
    <path d="M151.99,35.7c.46-.38.8-.85,1.07-1.38h-9.41l-.23,1.46c.31.19.63.36.96.51l7.06-.22c.19-.12.38-.23.54-.37Z"/>
    <path d="M153.19,30.32h-4.25s.08.04.12.07c.56.41.85.96.85,1.63,0,.03,0,.06,0,.09l3.63-.12c-.02-.6-.13-1.16-.33-1.68Z"/>
    <path d="M144.3,30.32s.01,0,.02,0h-.02Z"/>
    <path d="M161.87,30.36c.2.2.37.44.49.71.09.2.13.42.16.64l3.51-.11c-.02-.45-.1-.87-.22-1.28h-3.98s.04.03.05.04Z"/>
    <path d="M155.06,29.49c-.06.16-.11.31-.16.47l4.74-.15c.21-.06.42-.11.65-.11.19,0,.36.03.53.07l4.7-.15c-.21-.43-.45-.83-.77-1.17-.04-.05-.1-.08-.14-.13h-8.98c-.22.39-.41.78-.56,1.17Z"/>
    <path d="M158.7,33.53c-.2-.2-.37-.44-.49-.71-.07-.16-.11-.33-.14-.5h-3.5c.04.56.14,1.09.36,1.6,0,.01.01.02.02.04l4.1-.13c-.13-.09-.25-.18-.36-.29Z"/>
    <path d="M158.22,31.07c.12-.27.28-.51.49-.71.02-.02.04-.03.05-.04h-3.97c-.16.58-.24,1.13-.24,1.65l3.5-.11c.01-.28.06-.54.17-.78Z"/>
    <path d="M165.41,34.32h-10.24c.24.44.53.84.91,1.19.16.15.35.26.53.39l7.69-.24c.07-.05.14-.1.21-.16.37-.34.66-.75.9-1.18Z"/>
    <path d="M162.36,32.82c-.12.27-.28.51-.49.71-.08.08-.17.15-.25.21l4.12-.13c.15-.41.23-.84.27-1.29h-3.5c-.03.17-.07.34-.14.5Z"/>
    <path d="M157.89,36.59c.71.26,1.51.4,2.41.4s1.69-.13,2.39-.4c.2-.08.38-.18.57-.27h-5.94c.19.09.37.2.57.27Z"/>
    <polygon points="161.51 25.74 162.75 24.31 158.72 24.31 157.44 25.87 161.51 25.74"/>
    <path d="M161.49,27.03c-.17,0-.36.02-.58.06s-.49.17-.83.37h-.07l1-1.15h-3.94l-.44.53c-.29.35-.54.71-.77,1.07l7.9-.25c-.15-.09-.29-.19-.45-.26-.55-.25-1.16-.38-1.82-.38Z"/>
    <polygon points="163.87 23.03 159.78 23.03 159.14 23.82 163.3 23.68 163.87 23.03"/>
    <polygon points="175.41 36.6 179.98 36.6 179.74 36.32 175.18 36.32 175.41 36.6"/>
    <polygon points="170.82 33.45 170.82 32.32 167.29 32.32 167.29 33.56 170.82 33.45"/>
    <polygon points="170.82 23.03 167.29 23.03 167.29 23.56 170.82 23.45 170.82 23.03"/>
    <polygon points="167.29 31.56 170.82 31.45 170.82 30.72 171.37 31.43 175.6 31.29 174.8 30.32 167.29 30.32 167.29 31.56"/>
    <polygon points="174.13 24.31 173.33 25.37 177.63 25.23 178.4 24.31 174.13 24.31"/>
    <polygon points="171.75 27.42 175.91 27.28 176.73 26.31 172.6 26.31 171.75 27.42"/>
    <polygon points="170.82 28.63 170.82 28.32 167.29 28.32 167.29 29.56 174.19 29.34 175.05 28.32 171.06 28.32 170.82 28.63"/>
    <polygon points="179.47 23.03 175.12 23.03 174.9 23.32 179.36 23.17 179.47 23.03"/>
    <polygon points="167.29 34.32 167.29 35.56 170.82 35.45 170.82 34.32 167.29 34.32"/>
    <polygon points="167.29 27.56 170.82 27.45 170.82 26.31 167.29 26.31 167.29 27.56"/>
    <polygon points="170.82 25.45 170.82 24.31 167.29 24.31 167.29 25.56 170.82 25.45"/>
    <polygon points="174.41 35.33 178.81 35.19 178.09 34.32 173.62 34.32 174.41 35.33"/>
    <rect x="167.29" y="36.32" width="3.53" height=".29"/>
    <polygon points="172.89 33.38 177.21 33.24 176.45 32.32 172.06 32.32 172.89 33.38"/>
    <path d="M143.42,36.32h1.02s-.04-.02-.06-.03l-.96.03Z"/>
    <polygon points="143.42 34.32 143.65 34.32 143.65 34.31 143.42 34.32"/>
    <path d="M144.31,30.29v.03s.01,0,.01,0c.03-.01.05-.02.08-.03h-.09Z"/>
  </g>
</svg>